<?xml version="1.0" encoding="utf-8"?>
<!-- Generator: Adobe Illustrator 16.0.0, SVG Export Plug-In . SVG Version: 6.00 Build 0)  -->
<!DOCTYPE svg PUBLIC "-//W3C//DTD SVG 1.1//EN" "http://www.w3.org/Graphics/SVG/1.1/DTD/svg11.dtd">
<svg version="1.1" id="Layer_1" xmlns="http://www.w3.org/2000/svg" xmlns:xlink="http://www.w3.org/1999/xlink" x="0px" y="0px"
	 width="85px" height="85px" viewBox="0 0 85 85" enable-background="new 0 0 85 85" xml:space="preserve">
<g>
	<g>
		<g>
			<polygon fill="#FFFFFF" points="25,0 0,0 0,85 85,85 85,60 25,60 			"/>
		</g>
		<g>
			<rect x="51" fill="#FFFFFF" width="34" height="34"/>
		</g>
	</g>
	<g>
		<path stroke="#000000" stroke-width="0.5" stroke-miterlimit="10" d="M9.597,69.513h0.526v5.075h3.095v0.448H9.597V69.513z"/>
		<path stroke="#000000" stroke-width="0.5" stroke-miterlimit="10" d="M14.819,73.133v-0.448h1.934v0.448H14.819z"/>
		<path stroke="#000000" stroke-width="0.5" stroke-miterlimit="10" d="M18.935,69.513h1.911c1.664,0.038,2.538,0.951,2.538,2.762
			s-0.874,2.723-2.538,2.762h-1.911V69.513z M19.461,74.588h1.122c1.586,0.007,2.275-0.666,2.275-2.313s-0.689-2.321-2.275-2.313
			h-1.122V74.588z"/>
		<path stroke="#000000" stroke-width="0.5" stroke-miterlimit="10" d="M25.434,69.513h0.526v5.523h-0.526V69.513z"/>
		<path stroke="#000000" stroke-width="0.5" stroke-miterlimit="10" d="M28.257,69.513h0.773l1.911,4.843l1.903-4.843h0.774v5.523
			h-0.526v-4.773h-0.015l-1.888,4.773h-0.495l-1.896-4.773h-0.016v4.773h-0.526V69.513z"/>
		<path stroke="#000000" stroke-width="0.5" stroke-miterlimit="10" d="M35.878,69.513h3.814v0.448h-3.288v1.996h3.079v0.449h-3.079
			v2.182h3.327v0.448h-3.853V69.513z"/>
		<path stroke="#000000" stroke-width="0.5" stroke-miterlimit="10" d="M41.618,69.513h0.588l3.218,4.673h0.016v-4.673h0.526v5.523
			h-0.588l-3.218-4.673h-0.016v4.673h-0.526V69.513z"/>
		<path stroke="#000000" stroke-width="0.5" stroke-miterlimit="10" d="M48.48,73.218c-0.023,1.138,0.797,1.485,1.803,1.485
			c0.58,0,1.462-0.316,1.462-1.121c0-0.627-0.627-0.874-1.138-0.998l-1.229-0.302c-0.649-0.163-1.245-0.472-1.245-1.331
			c0-0.541,0.348-1.555,1.902-1.555c1.091,0,2.051,0.588,2.043,1.718h-0.526c-0.031-0.844-0.728-1.27-1.509-1.27
			c-0.719,0-1.385,0.279-1.385,1.099c0,0.519,0.387,0.735,0.836,0.844l1.346,0.332c0.781,0.209,1.432,0.55,1.432,1.455
			c0,0.379-0.155,1.578-2.112,1.578c-1.308,0-2.267-0.588-2.205-1.935H48.48z"/>
		<path stroke="#000000" stroke-width="0.5" stroke-miterlimit="10" d="M54.306,69.513h0.526v5.523h-0.526V69.513z"/>
		<path stroke="#000000" stroke-width="0.5" stroke-miterlimit="10" d="M59.458,69.396c1.733,0,2.6,1.369,2.6,2.878
			s-0.866,2.878-2.6,2.878c-1.741,0-2.606-1.369-2.606-2.878S57.717,69.396,59.458,69.396z M59.458,74.703
			c1.454,0,2.073-1.222,2.073-2.429s-0.619-2.43-2.073-2.43c-1.462,0-2.081,1.223-2.081,2.43S57.996,74.703,59.458,74.703z"/>
		<path stroke="#000000" stroke-width="0.5" stroke-miterlimit="10" d="M64.03,69.513h0.588l3.218,4.673h0.016v-4.673h0.526v5.523
			H67.79l-3.218-4.673h-0.016v4.673H64.03V69.513z"/>
		<path stroke="#000000" stroke-width="0.5" stroke-miterlimit="10" d="M70.893,73.218c-0.023,1.138,0.797,1.485,1.803,1.485
			c0.58,0,1.463-0.316,1.463-1.121c0-0.627-0.627-0.874-1.138-0.998l-1.229-0.302c-0.65-0.163-1.246-0.472-1.246-1.331
			c0-0.541,0.348-1.555,1.902-1.555c1.092,0,2.051,0.588,2.043,1.718h-0.525c-0.031-0.844-0.729-1.27-1.51-1.27
			c-0.719,0-1.385,0.279-1.385,1.099c0,0.519,0.387,0.735,0.836,0.844l1.346,0.332c0.781,0.209,1.432,0.55,1.432,1.455
			c0,0.379-0.154,1.578-2.111,1.578c-1.309,0-2.268-0.588-2.205-1.935H70.893z"/>
	</g>
</g>
</svg>
