<?xml version="1.0" encoding="utf-8"?>
<!-- Generator: Adobe Illustrator 16.0.0, SVG Export Plug-In . SVG Version: 6.00 Build 0)  -->
<!DOCTYPE svg PUBLIC "-//W3C//DTD SVG 1.1//EN" "http://www.w3.org/Graphics/SVG/1.1/DTD/svg11.dtd">
<svg version="1.1" xmlns="http://www.w3.org/2000/svg" xmlns:xlink="http://www.w3.org/1999/xlink" x="0px" y="0px" width="580px"
	 height="580px" viewBox="0 0 580 580" enable-background="new 0 0 580 580" xml:space="preserve">
<g id="Layer_1">
	<rect x="-1673.622" y="-1201.83" stroke="#FFFFFF" stroke-miterlimit="10" width="4113.412" height="4113.412"/>
</g>
<g id="Layer_2">
</g>
<g id="Layer_3">
	<line fill="none" stroke="#FFFFFF" stroke-miterlimit="10" x1="342.5" y1="205" x2="342.5" y2="229"/>
	<line fill="none" stroke="#FFFFFF" stroke-miterlimit="10" x1="171.88" y1="231.023" x2="179.369" y2="225.977"/>
	<line fill="none" stroke="#FFFFFF" stroke-miterlimit="10" x1="242.5" y1="205" x2="242.5" y2="220"/>
	
		<line fill="none" stroke="#FFFFFF" stroke-width="5" stroke-miterlimit="10" x1="498.172" y1="329.059" x2="510.139" y2="329.083"/>
	<line fill="none" stroke="#FFFFFF" stroke-miterlimit="10" x1="184.799" y1="418.114" x2="175.625" y2="429.404"/>
	<line fill="none" stroke="#FFFFFF" stroke-miterlimit="10" x1="310.404" y1="440.398" x2="301.23" y2="447.808"/>
	<line fill="none" stroke="#323232" stroke-miterlimit="10" x1="394.727" y1="416.114" x2="402.842" y2="425.64"/>
	<line fill="none" stroke="#323232" stroke-miterlimit="10" x1="488.93" y1="435" x2="508.1" y2="442.691"/>
</g>
<g id="Layer_8">
	<line fill="none" stroke="#323232" stroke-miterlimit="10" x1="268.5" y1="220" x2="268.5" y2="237"/>
	<line fill="none" stroke="#FFFFFF" stroke-miterlimit="10" x1="196.5" y1="231" x2="196.5" y2="219"/>
	<line fill="none" stroke="#FFFFFF" stroke-miterlimit="10" x1="457.794" y1="222.709" x2="470.206" y2="211.291"/>
	<line fill="none" stroke="#FFFFFF" stroke-miterlimit="10" x1="493" y1="350.5" x2="505" y2="350.5"/>
	<line fill="none" stroke="#323232" stroke-miterlimit="10" x1="244.5" y1="416" x2="244.5" y2="420"/>
	<line fill="none" stroke="#FFFFFF" stroke-width="2" stroke-miterlimit="10" x1="262" y1="422" x2="262" y2="440"/>
	<line fill="none" stroke="#323232" stroke-miterlimit="10" x1="359.326" y1="415.965" x2="369.673" y2="438.846"/>
	<line fill="none" stroke="#FFFFFF" stroke-miterlimit="10" x1="428.598" y1="418" x2="435.416" y2="424.818"/>
</g>
<g id="Layer_4">
	
		<line fill="none" stroke="#FFFFFF" stroke-width="5" stroke-miterlimit="10" x1="260.024" y1="130.887" x2="271.078" y2="144.343"/>
	<line fill="none" stroke="#323232" stroke-miterlimit="10" x1="288.162" y1="171.256" x2="278.6" y2="159.789"/>
	<line fill="none" stroke="#FFFFFF" stroke-miterlimit="10" x1="318.5" y1="169" x2="318.5" y2="179"/>
	<line fill="none" stroke="#FFFFFF" stroke-miterlimit="10" x1="333.5" y1="169" x2="333.5" y2="159"/>
	<line fill="none" stroke="#FFFFFF" stroke-width="5" stroke-miterlimit="10" x1="131.385" y1="220" x2="151.494" y2="233"/>
	<line fill="none" stroke="#FFFFFF" stroke-miterlimit="10" x1="121.292" y1="439.576" x2="133.64" y2="428.639"/>
	
		<line fill="none" stroke="#FFFFFF" stroke-width="5" stroke-miterlimit="10" x1="280.061" y1="472.506" x2="277.076" y2="484.678"/>
	<line fill="none" stroke="#FFFFFF" stroke-width="5" stroke-miterlimit="10" x1="192.5" y1="515" x2="192.5" y2="533.284"/>
	<line fill="none" stroke="#FFFFFF" stroke-miterlimit="10" x1="389.082" y1="484" x2="394.727" y2="491.205"/>
	<line fill="none" stroke="#FFFFFF" stroke-miterlimit="10" x1="431.068" y1="472.506" x2="450.473" y2="496.85"/>
	
		<line fill="none" stroke="#FFFFFF" stroke-width="2" stroke-miterlimit="10" x1="517.377" y1="494.927" x2="539.124" y2="511.779"/>
	<line fill="none" stroke="#FFFFFF" stroke-miterlimit="10" x1="452.689" y1="535.828" x2="471.742" y2="558.408"/>
</g>
<g id="Layer_7">
	<g>
		<line fill="none" stroke="#FFFFFF" stroke-width="2" stroke-miterlimit="10" x1="308" y1="83" x2="308" y2="64"/>
		<line fill="none" stroke="#FFFFFF" stroke-miterlimit="10" x1="278.5" y1="129" x2="278.5" y2="159"/>
		<line fill="none" stroke="#323232" stroke-miterlimit="10" x1="192.5" y1="183" x2="192.5" y2="200"/>
		<line fill="none" stroke="#FFFFFF" stroke-miterlimit="10" x1="141.43" y1="201" x2="154.536" y2="211.251"/>
		<line fill="none" stroke="#FFFFFF" stroke-miterlimit="10" x1="154" y1="199.5" x2="160" y2="199.5"/>
		<line fill="none" stroke="#FFFFFF" stroke-miterlimit="10" x1="329.809" y1="472.506" x2="335.807" y2="479.208"/>
		<line fill="none" stroke="#FFFFFF" stroke-miterlimit="10" x1="315.342" y1="540.246" x2="319.4" y2="544.305"/>
		<line fill="none" stroke="#FFFFFF" stroke-miterlimit="10" x1="342" y1="533.5" x2="352" y2="533.5"/>
		<line fill="none" stroke="#FFFFFF" stroke-miterlimit="10" x1="364.5" y1="503" x2="364.5" y2="511"/>
		<line fill="none" stroke="#FFFFFF" stroke-miterlimit="10" x1="383.084" y1="500" x2="390.846" y2="507"/>
	</g>
</g>
<g id="Layer_6">
	<line fill="none" stroke="#FFFFFF" stroke-width="5" stroke-miterlimit="10" x1="221.698" y1="34.056" x2="225.208" y2="56.99"/>
	<line fill="none" stroke="#323232" stroke-width="3" stroke-miterlimit="10" x1="265.5" y1="79" x2="265.5" y2="110"/>
	<line fill="none" stroke="#323232" stroke-miterlimit="10" x1="196.5" y1="484" x2="196.5" y2="500"/>
	
		<line fill="none" stroke="#323232" stroke-width="3" stroke-miterlimit="10" x1="471.431" y1="501.125" x2="498.245" y2="533.284"/>
	
		<line fill="none" stroke="#FFFFFF" stroke-width="5" stroke-miterlimit="10" x1="535.963" y1="537.315" x2="554.528" y2="554.526"/>
	<line fill="none" stroke="#FFFFFF" stroke-miterlimit="10" x1="459.284" y1="570.331" x2="478.284" y2="570.331"/>
</g>
<g id="Layer_9">
</g>
</svg>
